<?xml version="1.0" standalone="no"?>
<!DOCTYPE svg PUBLIC "-//W3C//DTD SVG 20010904//EN"
 "http://www.w3.org/TR/2001/REC-SVG-20010904/DTD/svg10.dtd">
<svg version="1.0" xmlns="http://www.w3.org/2000/svg"
 width="736.000000pt" height="718.000000pt" viewBox="0 0 736.000000 718.000000"
 preserveAspectRatio="xMidYMid meet">

<g transform="translate(0.000000,718.000000) scale(0.100000,-0.100000)"
fill="#000000" stroke="none">
<path d="M15 5740 c0 -795 1 -1120 2 -723 2 398 2 1048 0 1446 -1 397 -2 72
-2 -723z"/>
<path d="M4 4281 c-2 -2 -4 -447 -4 -988 l0 -983 3680 0 3680 0 0 60 0 60
-3647 1 c-2007 1 -3652 2 -3658 4 -5 1 -16 3 -22 3 -10 2 -13 181 -13 862 l0
860 3670 0 3670 0 0 60 0 60 -3676 2 c-2022 2 -3678 1 -3680 -1z"/>
<path d="M3175 4048 c11 -6 23 -16 27 -22 4 -6 8 -111 8 -234 l0 -223 -25 -24
-24 -25 92 1 c73 0 86 3 65 11 -36 13 -48 56 -48 176 0 83 2 92 19 92 26 0 42
-23 57 -78 12 -44 13 -39 12 88 0 133 0 134 -13 81 -12 -53 -38 -85 -60 -78
-6 2 -11 51 -13 120 l-3 117 46 0 c26 0 55 -5 67 -11 25 -14 58 -88 68 -153 6
-41 8 -30 9 62 l1 112 -152 0 c-119 -1 -149 -3 -133 -12z"/>
<path d="M3518 4050 c36 -15 42 -50 42 -237 0 -196 9 -242 53 -279 23 -19 40
-24 84 -24 47 0 59 4 84 29 16 16 29 34 29 39 0 6 -15 -5 -34 -24 -55 -55
-112 -44 -140 26 -13 32 -16 79 -16 233 0 207 5 231 53 240 12 2 -23 5 -78 5
-69 1 -93 -2 -77 -8z"/>
<path d="M3767 4050 c41 -17 48 -46 54 -235 l5 -180 2 171 c2 182 10 225 45
242 18 9 7 11 -53 11 -53 0 -69 -3 -53 -9z"/>
<path d="M3921 3933 c1 -114 2 -122 10 -68 5 32 14 74 20 92 14 45 56 93 80
93 18 0 19 -10 19 -238 0 -264 -3 -277 -63 -285 -17 -2 24 -4 93 -4 82 -1 113
2 92 7 -19 4 -39 13 -45 19 -8 8 -13 88 -15 256 -3 238 -2 245 17 245 43 0 85
-83 110 -215 7 -42 9 -27 10 88 l1 137 -165 0 -165 0 1 -127z"/>
<path d="M2503 3796 c-9 -10 -7 -20 6 -42 10 -16 25 -53 35 -83 22 -67 64
-131 115 -172 36 -28 40 -36 46 -92 6 -60 43 -198 71 -265 8 -18 14 -45 14
-60 0 -37 33 -88 72 -112 25 -15 28 -20 14 -20 -11 0 -30 10 -43 21 -17 17
-25 19 -36 10 -16 -13 -32 -137 -21 -164 10 -26 33 -20 52 12 17 31 50 51 81
51 10 0 48 -11 86 -24 66 -23 69 -25 111 -95 23 -39 52 -84 63 -100 12 -16 21
-40 21 -53 0 -44 14 -53 58 -40 21 7 47 21 57 32 17 19 17 20 -16 37 -51 28
-74 54 -94 108 -10 28 -49 119 -87 204 -37 85 -73 171 -78 192 -6 22 -15 39
-20 39 -6 0 -10 9 -10 20 0 10 -8 27 -19 37 -10 10 -21 31 -25 47 l-7 29 40
-36 c22 -20 76 -57 120 -83 45 -26 86 -53 92 -60 6 -8 17 -14 25 -14 7 0 19
-8 26 -19 14 -20 59 -22 66 -2 6 18 -15 38 -63 61 -55 27 -220 171 -240 210
-8 16 -15 40 -15 54 0 13 -12 39 -27 57 l-27 32 27 21 c15 12 27 29 27 38 0 9
7 29 15 44 21 41 19 61 -10 89 -26 27 -71 33 -98 13 -9 -7 -27 -40 -40 -73
-28 -73 -50 -84 -132 -66 -92 21 -155 94 -155 181 0 23 -4 39 -9 35 -5 -3 -12
-1 -16 5 -9 14 -38 12 -52 -4z"/>
<path d="M3811 3614 c0 -11 3 -14 6 -6 3 7 2 16 -1 19 -3 4 -6 -2 -5 -13z"/>
<path d="M3641 3089 c-54 -51 -67 -155 -28 -223 17 -30 42 -50 106 -86 61 -33
89 -55 99 -77 28 -59 -9 -143 -63 -143 -28 0 -85 47 -115 94 -11 18 -26 60
-34 92 l-14 59 -1 -130 c0 -121 1 -128 15 -102 18 34 40 34 84 2 20 -15 47
-25 68 -25 68 0 121 93 108 189 -10 72 -34 101 -121 148 -102 54 -119 74 -112
132 14 125 150 90 187 -47 21 -78 30 -71 30 24 0 88 -1 89 -19 66 -17 -23 -18
-23 -36 -5 -56 56 -115 68 -154 32z"/>
<path d="M4432 3088 c-87 -60 -126 -245 -83 -387 81 -267 313 -179 315 119 1
117 -23 191 -79 247 -35 36 -49 43 -81 43 -24 0 -52 -9 -72 -22z m111 -17 c36
-44 51 -119 50 -256 -1 -140 -21 -216 -65 -249 l-28 -20 -27 20 c-46 34 -66
109 -67 254 -1 136 16 217 54 258 28 30 53 28 83 -7z"/>
<path d="M3916 3088 c39 -18 44 -49 44 -263 0 -213 -7 -255 -42 -255 -10 0
-18 -4 -18 -10 0 -6 35 -10 84 -10 47 0 88 5 91 10 3 6 -2 10 -13 10 -30 0
-42 43 -42 150 l0 100 75 0 75 0 0 -99 c0 -107 -10 -151 -35 -151 -8 0 -15 -4
-15 -10 0 -6 35 -10 85 -10 79 0 111 11 65 23 -33 9 -40 51 -40 257 0 208 5
240 44 258 16 8 0 11 -69 11 l-90 1 25 -20 c24 -18 25 -25 28 -129 l4 -111
-76 0 -76 0 0 95 c0 101 10 137 44 153 16 8 -1 11 -74 11 -73 0 -90 -3 -74
-11z"/>
<path d="M4726 3088 c39 -18 44 -49 44 -266 0 -172 -3 -211 -16 -230 -8 -12
-22 -22 -30 -22 -8 0 -14 -4 -14 -10 0 -6 37 -10 90 -10 53 0 90 4 90 10 0 6
-9 10 -19 10 -27 0 -41 48 -41 146 l0 84 60 0 c101 0 140 42 140 152 0 81 -23
122 -77 137 -51 15 -256 14 -227 -1z m215 -27 c21 -26 33 -107 24 -162 -10
-58 -43 -89 -95 -89 l-40 0 0 141 0 142 47 -6 c31 -3 53 -12 64 -26z"/>
<path d="M3341 2894 c-29 -37 -27 -79 5 -109 54 -50 134 -15 134 58 0 72 -95
107 -139 51z"/>
<path d="M15 1110 c0 -613 1 -864 2 -558 2 307 2 809 0 1116 -1 306 -2 55 -2
-558z"/>
</g>
</svg>
